<?xml version="1.0" encoding="UTF-8" standalone="no"?>
<!-- Created with Inkscape (http://www.inkscape.org/) -->

<svg
   xmlns:dc="http://purl.org/dc/elements/1.1/"
   xmlns:cc="http://creativecommons.org/ns#"
   xmlns:rdf="http://www.w3.org/1999/02/22-rdf-syntax-ns#"
   xmlns:svg="http://www.w3.org/2000/svg"
   xmlns="http://www.w3.org/2000/svg"
   xmlns:sodipodi="http://sodipodi.sourceforge.net/DTD/sodipodi-0.dtd"
   xmlns:inkscape="http://www.inkscape.org/namespaces/inkscape"
   id="svg17620"
   version="1.1"
   viewBox="0 0 596.01101 297"
   height="11.692913in"
   width="23.465in"
   inkscape:version="0.92.2 (5c3e80d, 2017-08-06)"
   sodipodi:docname="104hpx6u.svg">
  <sodipodi:namedview
     inkscape:window-maximized="1"
     inkscape:window-y="-8"
     inkscape:window-x="-8"
     inkscape:window-height="1027"
     inkscape:window-width="1920"
     units="in"
     showgrid="false"
     inkscape:document-units="mm"
     inkscape:cy="24.236071"
     inkscape:cx="567.6041"
     inkscape:zoom="2"
     inkscape:pageshadow="2"
     inkscape:pageopacity="0.0"
     borderopacity="1.0"
     bordercolor="#666666"
     pagecolor="#ffffff"
     id="base"
     inkscape:current-layer="g17733" />
  <defs
     id="defs17614" />
  <metadata
     id="metadata17617">
    <rdf:RDF>
      <cc:Work
         rdf:about="">
        <dc:format>image/svg+xml</dc:format>
        <dc:type
           rdf:resource="http://purl.org/dc/dcmitype/StillImage" />
        <dc:title></dc:title>
      </cc:Work>
    </rdf:RDF>
  </metadata>
  <g
     transform="translate(0,8.3923341e-6)"
     id="layer1"
     inkscape:groupmode="layer"
     inkscape:label="Layer 1" />
  <g
     id="g17733"
     inkscape:groupmode="layer"
     inkscape:label="newlayer" />
  <path
     id="path17735"
     inkscape:label="part"
     style="fill:none;stroke:#0000ff;stroke-width:0.01;stroke-miterlimit:4;stroke-dasharray:none;stroke-opacity:1"
     d="m 93.571667,291.72166 v -34.627 h -6.2 v -25.89 h 6.2 v -34.582 h -6.2 v -25.89 h 6.2 v -34.582 h -6.2 v -25.89 h 6.2 V 75.678664 h -6.2 v -25.89 h 6.2 v -34.627"
     inkscape:connector-curvature="0" />
  <path
     id="path17737"
     inkscape:label="part"
     style="fill:none;stroke:#0000ff;stroke-width:0.01;stroke-miterlimit:4;stroke-dasharray:none;stroke-opacity:1"
     d="m 93.571667,15.161664 h 19.645003 v 6.2 h 25.70999 v -6.2 h 19.64501"
     inkscape:connector-curvature="0" />
  <path
     id="path17739"
     inkscape:label="part"
     style="fill:none;stroke:#0000ff;stroke-width:0.01;stroke-miterlimit:4;stroke-dasharray:none;stroke-opacity:1"
     d="m 158.57167,15.161664 v 34.627 0 25.89 0 34.581996 0 25.89 0 34.582 0 25.89 0 34.582 0 25.89 0 34.627"
     inkscape:connector-curvature="0" />
  <path
     id="path17741"
     inkscape:label="part"
     style="fill:none;stroke:#0000ff;stroke-width:0.01;stroke-miterlimit:4;stroke-dasharray:none;stroke-opacity:1"
     d="m 158.57167,291.72166 h -19.64501 v -6.2 h -25.70999 v 6.2 H 93.571667"
     inkscape:connector-curvature="0" />
  <circle
     id="path17743"
     style="fill:none;stroke:#0000ff;stroke-width:0.01;stroke-miterlimit:4;stroke-dasharray:none;stroke-opacity:1"
     cx="23.283331"
     cy="24.466665"
     r="2.5" />
  <circle
     id="path17745"
     style="fill:none;stroke:#0000ff;stroke-width:0.01;stroke-miterlimit:4;stroke-dasharray:none;stroke-opacity:1"
     cx="23.283331"
     cy="146.96667"
     r="2.5" />
  <circle
     id="path17747"
     style="fill:none;stroke:#0000ff;stroke-width:0.01;stroke-miterlimit:4;stroke-dasharray:none;stroke-opacity:1"
     cx="23.283331"
     cy="156.96667"
     r="2.5" />
  <circle
     id="path17749"
     style="fill:none;stroke:#0000ff;stroke-width:0.01;stroke-miterlimit:4;stroke-dasharray:none;stroke-opacity:1"
     cx="23.283331"
     cy="279.46667"
     r="2.5" />
  <path
     id="path17751"
     inkscape:label="part"
     style="fill:none;stroke:#0000ff;stroke-width:0.01;stroke-miterlimit:4;stroke-dasharray:none;stroke-opacity:1"
     d="m 5.883333,19.466666 h 19.555001 v -6.2 h 25.889999 v 6.2 h 19.555"
     inkscape:connector-curvature="0" />
  <path
     id="path17753"
     inkscape:label="part"
     style="fill:none;stroke:#0000ff;stroke-width:0.01;stroke-miterlimit:4;stroke-dasharray:none;stroke-opacity:1"
     d="m 70.883333,19.466666 v 28.595001 h 6.2 v 25.889999 h -6.2 v 34.750004 h 6.2 v 25.89 h -6.2 v 34.75 h 6.2 v 25.89 h -6.2 v 34.75 h 6.2 v 25.89 h -6.2 v 28.595"
     inkscape:connector-curvature="0" />
  <path
     id="path17755"
     inkscape:label="part"
     style="fill:none;stroke:#0000ff;stroke-width:0.01;stroke-miterlimit:4;stroke-dasharray:none;stroke-opacity:1"
     d="m 70.883333,284.46667 h -19.555 v 6.2 H 25.438334 v -6.2 H 5.883333"
     inkscape:connector-curvature="0" />
  <path
     id="path17757"
     inkscape:label="part"
     style="fill:none;stroke:#0000ff;stroke-width:0.01;stroke-miterlimit:4;stroke-dasharray:none;stroke-opacity:1"
     d="m 5.883333,284.46667 v -28.595 0 -25.89 0 -34.75 0 -25.89 0 -34.75 0 -25.89 0 -34.750004 0 -25.889999 0 -28.595001"
     inkscape:connector-curvature="0" />
  <path
     id="path17759"
     inkscape:label="part"
     style="fill:none;stroke:#0000ff;stroke-width:0.01;stroke-miterlimit:4;stroke-dasharray:none;stroke-opacity:1"
     d="m 443.285,288.55 h -34.717 v -6.2 h -25.71 v 6.2 h -34.762 v -6.2 h -25.71 v 6.2 h -34.762 v -6.2 h -25.71 v 6.2 h -34.762 v -6.2 h -25.71 v 6.2 h -34.717"
     inkscape:connector-curvature="0" />
  <path
     id="path17761"
     inkscape:label="part"
     style="fill:none;stroke:#0000ff;stroke-width:0.01;stroke-miterlimit:4;stroke-dasharray:none;stroke-opacity:1"
     d="m 166.725,288.55 v -34.885 h 6.2 v -25.71 h -6.2 v -34.93 h 6.2 v -25.71 h -6.2 v -34.93 h 6.2 v -25.71 h -6.2 v -34.93 h 6.2 v -25.71 h -6.2 V 11.15"
     inkscape:connector-curvature="0" />
  <path
     id="path17763"
     inkscape:label="part"
     style="fill:none;stroke:#0000ff;stroke-width:0.01;stroke-miterlimit:4;stroke-dasharray:none;stroke-opacity:1"
     d="m 166.725,11.15 h 34.717 v 6.2 h 25.71 v -6.2 h 34.762 v 6.2 h 25.71 v -6.2 h 34.762 v 6.2 h 25.71 v -6.2 h 34.762 v 6.2 h 25.71 v -6.2 h 34.717"
     inkscape:connector-curvature="0" />
  <path
     id="path17765"
     inkscape:label="part"
     style="fill:none;stroke:#0000ff;stroke-width:0.01;stroke-miterlimit:4;stroke-dasharray:none;stroke-opacity:1"
     d="m 443.285,11.15 v 34.885 h -6.2 v 25.71 h 6.2 v 34.93 h -6.2 v 25.71 h 6.2 v 34.93 h -6.2 v 25.71 h 6.2 v 34.93 h -6.2 v 25.71 h 6.2 v 34.885"
     inkscape:connector-curvature="0" />
  <circle
     id="path17767"
     style="fill:none;stroke:#0000ff;stroke-width:0.01;stroke-miterlimit:4;stroke-dasharray:none;stroke-opacity:1"
     cx="576.14337"
     cy="23.408333"
     r="2.5" />
  <circle
     id="path17769"
     style="fill:none;stroke:#0000ff;stroke-width:0.01;stroke-miterlimit:4;stroke-dasharray:none;stroke-opacity:1"
     cx="576.14337"
     cy="145.90834"
     r="2.5" />
  <circle
     id="path17771"
     style="fill:none;stroke:#0000ff;stroke-width:0.01;stroke-miterlimit:4;stroke-dasharray:none;stroke-opacity:1"
     cx="576.14337"
     cy="155.90834"
     r="2.5" />
  <circle
     id="path17773"
     style="fill:none;stroke:#0000ff;stroke-width:0.01;stroke-miterlimit:4;stroke-dasharray:none;stroke-opacity:1"
     cx="576.14337"
     cy="278.40836"
     r="2.5" />
  <path
     id="path17775"
     inkscape:label="part"
     style="fill:none;stroke:#0000ff;stroke-width:0.01;stroke-miterlimit:4;stroke-dasharray:none;stroke-opacity:1"
     d="m 528.54333,18.408333 h 19.555 v -6.2 h 25.89 v 6.2 h 19.555"
     inkscape:connector-curvature="0" />
  <path
     id="path17777"
     inkscape:label="part"
     style="fill:none;stroke:#0000ff;stroke-width:0.01;stroke-miterlimit:4;stroke-dasharray:none;stroke-opacity:1"
     d="m 593.54333,18.408333 v 28.595001 0 25.889999 0 34.750007 0 25.89 0 34.75 0 25.89 0 34.75 0 25.89 0 28.595"
     inkscape:connector-curvature="0" />
  <path
     id="path17779"
     inkscape:label="part"
     style="fill:none;stroke:#0000ff;stroke-width:0.01;stroke-miterlimit:4;stroke-dasharray:none;stroke-opacity:1"
     d="m 593.54333,283.40834 h -19.555 v 6.2 h -25.89 v -6.2 h -19.555"
     inkscape:connector-curvature="0" />
  <path
     id="path17781"
     inkscape:label="part"
     style="fill:none;stroke:#0000ff;stroke-width:0.01;stroke-miterlimit:4;stroke-dasharray:none;stroke-opacity:1"
     d="m 528.54333,283.40834 v -28.595 h -6.2 v -25.89 h 6.2 v -34.75 h -6.2 v -25.89 h 6.2 v -34.75 h -6.2 v -25.89 h 6.2 V 72.893333 h -6.2 V 47.003334 h 6.2 V 18.408333"
     inkscape:connector-curvature="0" />
  <path
     id="path17791"
     inkscape:label="part"
     style="fill:none;stroke:#0000ff;stroke-width:0.01;stroke-miterlimit:4;stroke-dasharray:none;stroke-opacity:1"
     d="m 448.26333,289.83 v -34.627 0 -25.89 0 -34.582 0 -25.89 0 -34.582 0 -25.89 0 -34.582 0 -25.89 0 -34.627"
     inkscape:connector-curvature="0" />
  <path
     id="path17793"
     inkscape:label="part"
     style="fill:none;stroke:#0000ff;stroke-width:0.01;stroke-miterlimit:4;stroke-dasharray:none;stroke-opacity:1"
     d="m 448.26333,13.27 h 19.645 v 6.2 h 25.71 v -6.2 h 19.645"
     inkscape:connector-curvature="0" />
  <path
     id="path17795"
     inkscape:label="part"
     style="fill:none;stroke:#0000ff;stroke-width:0.01;stroke-miterlimit:4;stroke-dasharray:none;stroke-opacity:1"
     d="m 513.26333,13.27 v 34.627 h 6.2 v 25.89 h -6.2 v 34.582 h 6.2 v 25.89 h -6.2 v 34.582 h 6.2 v 25.89 h -6.2 v 34.582 h 6.2 v 25.89 h -6.2 v 34.627"
     inkscape:connector-curvature="0" />
  <path
     id="path17797"
     inkscape:label="part"
     style="fill:none;stroke:#0000ff;stroke-width:0.01;stroke-miterlimit:4;stroke-dasharray:none;stroke-opacity:1"
     d="m 513.26333,289.83 h -19.645 v -6.2 h -25.71 v 6.2 h -19.645"
     inkscape:connector-curvature="0" />
</svg>
