<?xml version="1.0" encoding="UTF-8" standalone="no"?>
<!-- Created with Inkscape (http://www.inkscape.org/) -->

<svg
   xmlns:dc="http://purl.org/dc/elements/1.1/"
   xmlns:cc="http://creativecommons.org/ns#"
   xmlns:rdf="http://www.w3.org/1999/02/22-rdf-syntax-ns#"
   xmlns:svg="http://www.w3.org/2000/svg"
   xmlns="http://www.w3.org/2000/svg"
   xmlns:sodipodi="http://sodipodi.sourceforge.net/DTD/sodipodi-0.dtd"
   xmlns:inkscape="http://www.inkscape.org/namespaces/inkscape"
   id="svg8"
   version="1.1"
   viewBox="0 0 596.01101 291.0078"
   height="11.457in"
   width="23.465in"
   inkscape:version="0.92.2 (5c3e80d, 2017-08-06)"
   sodipodi:docname="104hp-best.svg">
  <sodipodi:namedview
     inkscape:window-maximized="1"
     inkscape:window-y="-8"
     inkscape:window-x="-8"
     inkscape:window-height="1027"
     inkscape:window-width="1920"
     showgrid="false"
     inkscape:current-layer="svg8"
     inkscape:document-units="mm"
     inkscape:cy="445.71446"
     inkscape:cx="1462.1149"
     inkscape:zoom="0.35"
     inkscape:pageshadow="2"
     inkscape:pageopacity="0.0"
     borderopacity="1.0"
     bordercolor="#666666"
     pagecolor="#ffffff"
     id="base"
     units="in" />
  <defs
     id="defs2" />
  <metadata
     id="metadata5">
    <rdf:RDF>
      <cc:Work
         rdf:about="">
        <dc:format>image/svg+xml</dc:format>
        <dc:type
           rdf:resource="http://purl.org/dc/dcmitype/StillImage" />
        <dc:title></dc:title>
      </cc:Work>
    </rdf:RDF>
  </metadata>
  <g
     inkscape:label="Layer 1"
     inkscape:groupmode="layer"
     id="layer1"
     transform="translate(0,-5.9921832)" />
  <g
     inkscape:label="newlayer"
     inkscape:groupmode="layer"
     id="g11812"
     transform="translate(0,-13.7922)" />
  <g
     id="g11920"
     inkscape:groupmode="layer"
     inkscape:label="newlayer"
     transform="translate(0,-13.7922)" />
  <path
     id="path11922"
     inkscape:label="part"
     style="opacity:1;fill:none;stroke:#0000ff;stroke-width:0.01;stroke-miterlimit:4;stroke-dasharray:none;stroke-opacity:1"
     d="M 353.449,5.8967811 V 31.038161 h 6.1976 v 25.14138 h -6.1976 v 25.14139 h 6.1976 v 25.141379 h -6.1976 v 25.14138 h 6.1976 v 25.14138 h -6.1976 v 25.14138 h 6.1976 v 25.14138 h -6.1976 v 25.14139 h 6.1976 v 25.14138 h -6.1976 v 25.14138"
     inkscape:connector-curvature="0" />
  <path
     id="path11924"
     inkscape:label="part"
     style="opacity:1;fill:none;stroke:#0000ff;stroke-width:0.01;stroke-miterlimit:4;stroke-dasharray:none;stroke-opacity:1"
     d="m 353.449,282.45198 h -19.6008 v -6.1976 h -25.7984 v 6.1976 H 288.449"
     inkscape:connector-curvature="0" />
  <path
     id="path11926"
     inkscape:label="part"
     style="opacity:1;fill:none;stroke:#0000ff;stroke-width:0.01;stroke-miterlimit:4;stroke-dasharray:none;stroke-opacity:1"
     d="m 288.449,282.45198 v -25.14138 0 -25.14138 0 -25.14139 0 -25.14138 0 -25.14138 0 -25.14138 0 -25.14138 0 -25.141379 0 -25.14139 0 -25.14138 0 -25.1413799"
     inkscape:connector-curvature="0" />
  <path
     id="path11928"
     inkscape:label="part"
     style="opacity:1;fill:none;stroke:#0000ff;stroke-width:0.01;stroke-miterlimit:4;stroke-dasharray:none;stroke-opacity:1"
     d="m 288.449,5.8967811 h 19.6008 v 6.1975999 h 25.7984 V 5.8967811 h 19.6008"
     inkscape:connector-curvature="0" />
  <circle
     id="path11930"
     style="opacity:1;fill:none;stroke:#0000ff;stroke-width:0.01;stroke-miterlimit:4;stroke-dasharray:none;stroke-opacity:1"
     cx="459.16309"
     cy="16.866074"
     r="2.5" />
  <circle
     id="path11932"
     style="opacity:1;fill:none;stroke:#0000ff;stroke-width:0.01;stroke-miterlimit:4;stroke-dasharray:none;stroke-opacity:1"
     cx="459.16309"
     cy="139.36607"
     r="2.5" />
  <circle
     id="path11934"
     style="opacity:1;fill:none;stroke:#0000ff;stroke-width:0.01;stroke-miterlimit:4;stroke-dasharray:none;stroke-opacity:1"
     cx="459.16309"
     cy="149.36607"
     r="2.5" />
  <circle
     id="path11936"
     style="opacity:1;fill:none;stroke:#0000ff;stroke-width:0.01;stroke-miterlimit:4;stroke-dasharray:none;stroke-opacity:1"
     cx="459.16309"
     cy="271.86606"
     r="2.5" />
  <path
     id="path11938"
     inkscape:label="part"
     style="opacity:1;fill:none;stroke:#0000ff;stroke-width:0.01;stroke-miterlimit:4;stroke-dasharray:none;stroke-opacity:1"
     d="m 441.76308,11.866076 h 19.6008 V 5.6684758 h 25.7984 v 6.1976002 h 19.6008"
     inkscape:connector-curvature="0" />
  <path
     id="path11940"
     inkscape:label="part"
     style="opacity:1;fill:none;stroke:#0000ff;stroke-width:0.01;stroke-miterlimit:4;stroke-dasharray:none;stroke-opacity:1"
     d="m 506.76308,11.866076 v 19.020146 h 6.1976 v 25.217745 h -6.1976 v 25.217746 h 6.1976 v 25.217737 h -6.1976 v 25.21775 h 6.1976 v 25.21774 h -6.1976 v 25.21775 h 6.1976 v 25.21774 h -6.1976 v 25.21775 h 6.1976 v 25.21775 h -6.1976 v 19.02014"
     inkscape:connector-curvature="0" />
  <path
     id="path11942"
     inkscape:label="part"
     style="opacity:1;fill:none;stroke:#0000ff;stroke-width:0.01;stroke-miterlimit:4;stroke-dasharray:none;stroke-opacity:1"
     d="m 506.76308,276.86607 h -19.6008 v 6.1976 h -25.7984 v -6.1976 h -19.6008"
     inkscape:connector-curvature="0" />
  <path
     id="path11944"
     inkscape:label="part"
     style="opacity:1;fill:none;stroke:#0000ff;stroke-width:0.01;stroke-miterlimit:4;stroke-dasharray:none;stroke-opacity:1"
     d="m 441.76308,276.86607 v -19.02014 0 -25.21775 0 -25.21775 0 -25.21774 0 -25.21775 0 -25.21774 0 -25.21775 0 -25.217737 0 -25.217746 0 -25.217745 0 -19.020146"
     inkscape:connector-curvature="0" />
  <path
     id="path11946"
     inkscape:label="part"
     style="opacity:1;fill:none;stroke:#0000ff;stroke-width:0.01;stroke-miterlimit:4;stroke-dasharray:none;stroke-opacity:1"
     d="M 4.3416284,7.180381 H 29.48301 v 6.1976 h 25.141382 v -6.1976 h 25.141382 v 6.1976 h 25.141376 v -6.1976 h 25.14138 v 6.1976 h 25.14139 v -6.1976 h 25.14138 v 6.1976 h 25.14138 v -6.1976 h 25.14138 v 6.1976 h 25.14138 v -6.1976 h 25.14139"
     inkscape:connector-curvature="0" />
  <path
     id="path11948"
     inkscape:label="part"
     style="opacity:1;fill:none;stroke:#0000ff;stroke-width:0.01;stroke-miterlimit:4;stroke-dasharray:none;stroke-opacity:1"
     d="m 280.89683,7.180381 v 25.217745 h -6.1976 v 25.217746 h 6.1976 v 25.217745 h -6.1976 v 25.217743 h 6.1976 v 25.21775 h -6.1976 v 25.21774 h 6.1976 v 25.21775 h -6.1976 v 25.21775 h 6.1976 v 25.21774 h -6.1976 v 25.21775 h 6.1976 v 25.21774"
     inkscape:connector-curvature="0" />
  <path
     id="path11950"
     inkscape:label="part"
     style="opacity:1;fill:none;stroke:#0000ff;stroke-width:0.01;stroke-miterlimit:4;stroke-dasharray:none;stroke-opacity:1"
     d="m 280.89683,284.57558 h -25.14139 v -6.1976 h -25.14138 v 6.1976 h -25.14138 v -6.1976 H 180.3313 v 6.1976 h -25.14138 v -6.1976 h -25.14139 v 6.1976 h -25.14138 v -6.1976 H 79.765774 v 6.1976 H 54.624392 v -6.1976 H 29.48301 v 6.1976 H 4.3416284"
     inkscape:connector-curvature="0" />
  <path
     id="path11952"
     inkscape:label="part"
     style="opacity:1;fill:none;stroke:#0000ff;stroke-width:0.01;stroke-miterlimit:4;stroke-dasharray:none;stroke-opacity:1"
     d="M 4.3416284,284.57558 V 259.35784 H 10.539228 V 234.14009 H 4.3416284 V 208.92235 H 10.539228 V 183.7046 H 4.3416284 V 158.48685 H 10.539228 V 133.26911 H 4.3416284 V 108.05136 H 10.539228 V 82.833617 H 4.3416284 V 57.615872 H 10.539228 V 32.398126 H 4.3416284 V 7.180381"
     inkscape:connector-curvature="0" />
  <circle
     id="path11954"
     style="opacity:1;fill:none;stroke:#0000ff;stroke-width:0.01;stroke-miterlimit:4;stroke-dasharray:none;stroke-opacity:1"
     cx="572.95636"
     cy="16.110121"
     r="2.5" />
  <circle
     id="path11956"
     style="opacity:1;fill:none;stroke:#0000ff;stroke-width:0.01;stroke-miterlimit:4;stroke-dasharray:none;stroke-opacity:1"
     cx="572.95636"
     cy="138.61012"
     r="2.5" />
  <circle
     id="path11958"
     style="opacity:1;fill:none;stroke:#0000ff;stroke-width:0.01;stroke-miterlimit:4;stroke-dasharray:none;stroke-opacity:1"
     cx="572.95636"
     cy="148.61012"
     r="2.5" />
  <circle
     id="path11960"
     style="opacity:1;fill:none;stroke:#0000ff;stroke-width:0.01;stroke-miterlimit:4;stroke-dasharray:none;stroke-opacity:1"
     cx="572.95636"
     cy="271.11011"
     r="2.5" />
  <path
     id="path11962"
     inkscape:label="part"
     style="opacity:1;fill:none;stroke:#0000ff;stroke-width:0.01;stroke-miterlimit:4;stroke-dasharray:none;stroke-opacity:1"
     d="m 525.35633,11.110123 h 19.6008 V 4.9125234 h 25.7984 v 6.1975996 h 19.6008"
     inkscape:connector-curvature="0" />
  <path
     id="path11964"
     inkscape:label="part"
     style="opacity:1;fill:none;stroke:#0000ff;stroke-width:0.01;stroke-miterlimit:4;stroke-dasharray:none;stroke-opacity:1"
     d="m 590.35633,11.110123 v 19.020146 0 25.217745 0 25.217746 0 25.21774 0 25.21775 0 25.21774 0 25.21775 0 25.21774 0 25.21775 0 25.21775 0 19.02014"
     inkscape:connector-curvature="0" />
  <path
     id="path11966"
     inkscape:label="part"
     style="opacity:1;fill:none;stroke:#0000ff;stroke-width:0.01;stroke-miterlimit:4;stroke-dasharray:none;stroke-opacity:1"
     d="m 590.35633,276.11012 h -19.6008 v 6.1976 h -25.7984 v -6.1976 h -19.6008"
     inkscape:connector-curvature="0" />
  <path
     id="path11968"
     inkscape:label="part"
     style="opacity:1;fill:none;stroke:#0000ff;stroke-width:0.01;stroke-miterlimit:4;stroke-dasharray:none;stroke-opacity:1"
     d="m 525.35633,276.11012 v -19.02014 h -6.1976 v -25.21775 h 6.1976 v -25.21775 h -6.1976 v -25.21774 h 6.1976 v -25.21775 h -6.1976 v -25.21774 h 6.1976 V 105.7835 h -6.1976 V 80.56576 h 6.1976 V 55.348014 h -6.1976 V 30.130269 h 6.1976 V 11.110123"
     inkscape:connector-curvature="0" />
  <path
     id="path11978"
     inkscape:label="part"
     style="opacity:1;fill:none;stroke:#0000ff;stroke-width:0.01;stroke-miterlimit:4;stroke-dasharray:none;stroke-opacity:1"
     d="m 435.24184,5.524219 v 25.141382 0 25.141382 0 25.141381 0 25.141386 0 25.14138 0 25.14138 0 25.14138 0 25.14138 0 25.14139 0 25.14138 0 25.14138"
     inkscape:connector-curvature="0" />
  <path
     id="path11980"
     inkscape:label="part"
     style="opacity:1;fill:none;stroke:#0000ff;stroke-width:0.01;stroke-miterlimit:4;stroke-dasharray:none;stroke-opacity:1"
     d="m 435.24184,282.07942 h -19.6008 v -6.1976 h -25.7984 v 6.1976 h -19.6008"
     inkscape:connector-curvature="0" />
  <path
     id="path11982"
     inkscape:label="part"
     style="opacity:1;fill:none;stroke:#0000ff;stroke-width:0.01;stroke-miterlimit:4;stroke-dasharray:none;stroke-opacity:1"
     d="m 370.24184,282.07942 v -25.14138 h -6.1976 v -25.14138 h 6.1976 v -25.14139 h -6.1976 v -25.14138 h 6.1976 v -25.14138 h -6.1976 v -25.14138 h 6.1976 v -25.14138 h -6.1976 V 80.948364 h 6.1976 V 55.806983 h -6.1976 V 30.665601 h 6.1976 V 5.524219"
     inkscape:connector-curvature="0" />
  <path
     id="path11984"
     inkscape:label="part"
     style="opacity:1;fill:none;stroke:#0000ff;stroke-width:0.01;stroke-miterlimit:4;stroke-dasharray:none;stroke-opacity:1"
     d="m 370.24184,5.524219 h 19.6008 v 6.1976 h 25.7984 v -6.1976 h 19.6008"
     inkscape:connector-curvature="0" />
</svg>
